<svg width="18" height="18" viewBox="0 0 18 18" fill="none" xmlns="http://www.w3.org/2000/svg">
<path d="M9.00019 10.8738L2.44202 17.4319C2.19665 17.6773 1.88435 17.8 1.50514 17.8C1.12592 17.8 0.81363 17.6773 0.568256 17.4319C0.322882 17.1866 0.200195 16.8743 0.200195 16.4951C0.200195 16.1159 0.322882 15.8036 0.568256 15.5582L7.12643 9.00001L0.568256 2.44184C0.322882 2.19646 0.200195 1.88417 0.200195 1.50495C0.200195 1.12574 0.322882 0.813446 0.568256 0.568073C0.81363 0.322699 1.12592 0.200012 1.50514 0.200012C1.88435 0.200012 2.19665 0.322699 2.44202 0.568073L9.00019 7.12625L15.5584 0.568073C15.8037 0.322699 16.116 0.200012 16.4953 0.200012C16.8745 0.200012 17.1868 0.322699 17.4321 0.568073C17.6775 0.813446 17.8002 1.12574 17.8002 1.50495C17.8002 1.88417 17.6775 2.19646 17.4321 2.44184L10.874 9.00001L17.4321 15.5582C17.6775 15.8036 17.8002 16.1159 17.8002 16.4951C17.8002 16.8743 17.6775 17.1866 17.4321 17.4319C17.1868 17.6773 16.8745 17.8 16.4953 17.8C16.116 17.8 15.8037 17.6773 15.5584 17.4319L9.00019 10.8738Z" fill="#6B7280"/>
</svg>