<svg width="104" height="101" viewBox="0 0 104 101" fill="none" xmlns="http://www.w3.org/2000/svg">
<path d="M100.366 21.5597H3.63641C2.18682 21.5597 1 20.3667 1 18.9095V3.65015C1 2.193 2.18682 1 3.63641 1H100.364C101.813 1 103 2.193 103 3.65015V18.9066C103.003 20.3667 101.816 21.5597 100.366 21.5597Z" fill="white"/>
<path d="M100.366 21.5597H3.63641C2.18682 21.5597 1 20.3667 1 18.9095V3.65015C1 2.193 2.18682 1 3.63641 1H100.364C101.813 1 103 2.193 103 3.65015V18.9066C103.003 20.3667 101.816 21.5597 100.366 21.5597Z" fill="white" stroke="black" stroke-width="0.3" stroke-miterlimit="10"/>
<path d="M52.293 4.62817L53.757 7.60923C53.8725 7.84434 54.0949 8.00689 54.3548 8.04463L57.6265 8.52357C58.2791 8.61936 58.5389 9.4234 58.0654 9.88493L55.6975 12.2042C55.5098 12.387 55.4261 12.6512 55.4694 12.9095L56.0296 16.1866C56.1422 16.8397 55.4607 17.3361 54.8774 17.0284L51.9494 15.4813C51.7183 15.3594 51.4411 15.3594 51.2101 15.4813L48.2821 17.0284C47.6988 17.3361 47.0173 16.8397 47.1299 16.1866L47.6901 12.9095C47.7334 12.6512 47.6497 12.387 47.462 12.2042L45.0941 9.88493C44.6234 9.4234 44.8833 8.61936 45.533 8.52357L48.8047 8.04463C49.0646 8.00689 49.287 7.84434 49.4025 7.60923L50.8665 4.62817C51.1581 4.03312 52.0013 4.03312 52.293 4.62817Z" fill="#1545D2"/>
<path d="M71.0857 4.62817L72.5497 7.60923C72.6652 7.84434 72.8876 8.00689 73.1475 8.04463L76.4192 8.52357C77.0718 8.61936 77.3317 9.4234 76.8581 9.88493L74.4902 12.2042C74.3025 12.387 74.2188 12.6512 74.2621 12.9095L74.8223 16.1866C74.9349 16.8397 74.2534 17.3361 73.6701 17.0284L70.7421 15.4813C70.5111 15.3594 70.2339 15.3594 70.0028 15.4813L67.0748 17.0284C66.4915 17.3361 65.8129 16.8397 65.9226 16.1866L66.4828 12.9095C66.5261 12.6512 66.4424 12.387 66.2547 12.2042L63.8868 9.88493C63.4161 9.4234 63.676 8.61936 64.3257 8.52357L67.5974 8.04463C67.8573 8.00689 68.0797 7.84434 68.1952 7.60923L69.6592 4.62817C69.9538 4.03312 70.7941 4.03312 71.0857 4.62817Z" fill="#1545D2"/>
<path d="M89.8784 4.62817L91.3425 7.60923C91.458 7.84434 91.6803 8.00689 91.9402 8.04463L95.2119 8.52357C95.8645 8.61936 96.1244 9.4234 95.6508 9.88493L93.283 12.2042C93.0953 12.387 93.0115 12.6512 93.0548 12.9095L93.615 16.1866C93.7276 16.8397 93.0462 17.3361 92.4629 17.0284L89.5348 15.4813C89.3038 15.3594 89.0266 15.3594 88.7956 15.4813L85.8675 17.0284C85.2842 17.3361 84.6056 16.8397 84.7153 16.1866L85.2755 12.9095C85.3189 12.6512 85.2351 12.387 85.0474 12.2042L82.6796 9.88493C82.2089 9.4234 82.4688 8.61936 83.1185 8.52357L86.3902 8.04463C86.6501 8.00689 86.8724 7.84434 86.9879 7.60923L88.4519 4.62817C88.7465 4.03312 89.5868 4.03312 89.8784 4.62817Z" fill="#1545D2"/>
<path d="M31.9959 4.62817L33.4599 7.60923C33.5754 7.84434 33.7978 8.00689 34.0576 8.04463L37.3293 8.52357C37.9819 8.61936 38.2418 9.4234 37.7683 9.88493L35.4004 12.2042C35.2127 12.387 35.129 12.6512 35.1723 12.9095L35.7325 16.1866C35.8451 16.8397 35.1636 17.3361 34.5803 17.0284L31.6522 15.4813C31.4212 15.3594 31.144 15.3594 30.913 15.4813L27.9849 17.0284C27.4016 17.3361 26.723 16.8397 26.8328 16.1866L27.393 12.9095C27.4363 12.6512 27.3525 12.387 27.1649 12.2042L24.797 9.88493C24.3263 9.4234 24.5862 8.61936 25.2359 8.52357L28.5076 8.04463C28.7675 8.00689 28.9898 7.84434 29.1053 7.60923L30.5694 4.62817C30.861 4.03312 31.7042 4.03312 31.9959 4.62817Z" fill="#1545D2"/>
<path d="M11.6985 4.62817L13.1625 7.60923C13.278 7.84434 13.5004 8.00689 13.7603 8.04463L17.032 8.52357C17.6846 8.61936 17.9445 9.4234 17.4709 9.88493L15.103 12.2042C14.9153 12.387 14.8316 12.6512 14.8749 12.9095L15.4351 16.1866C15.5477 16.8397 14.8662 17.3361 14.2829 17.0284L11.3549 15.4813C11.1239 15.3594 10.8466 15.3594 10.6156 15.4813L7.68757 17.0284C7.10427 17.3361 6.42568 16.8397 6.53541 16.1866L7.09561 12.9095C7.13892 12.6512 7.05518 12.387 6.86748 12.2042L4.49962 9.88493C4.02894 9.4234 4.28882 8.61936 4.93854 8.52357L8.21024 8.04463C8.47012 8.00689 8.69247 7.84434 8.80798 7.60923L10.272 4.62817C10.5637 4.03312 11.4069 4.03312 11.6985 4.62817Z" fill="#1545D2"/>
<path d="M54.2074 100.811C68.6065 100.707 80.2552 97.2583 80.2255 93.1083C80.1958 88.9583 68.4989 85.6786 54.0997 85.7828C39.7006 85.887 28.0519 89.3357 28.0816 93.4857C28.1114 97.6357 39.8083 100.915 54.2074 100.811Z" fill="#1545D2" stroke="black" stroke-width="0.25" stroke-miterlimit="10"/>
<path d="M46.1798 84.8613C46.1798 84.8613 43.9336 94.6536 43.9336 100.156L47.7034 100.578L50.426 100.788H52.7297L53.7504 93.2982L54.8241 100.788L59.0127 100.578L60.1646 100.472L61.3165 100.367L63.4108 100.156C63.4108 100.156 64.0602 92.2908 61.7782 84.6787L46.1798 84.8613Z" fill="white"/>
<path d="M46.1799 84.8613C46.1799 84.8613 45.7686 86.6334 45.3035 89.0878C45.9563 89.3788 46.7689 89.4892 47.3538 89.5554C50.5901 89.9207 53.8583 89.2985 57.1146 89.3748C59.0252 89.4209 60.9858 89.6999 62.8365 89.3066C62.5889 87.8014 62.2495 86.236 61.7823 84.6787L46.1799 84.8613Z" fill="white"/>
<path d="M51.2888 93.7537C51.774 93.5891 52.2711 93.4607 52.7702 93.3543C53.2713 93.2459 53.7784 93.1697 54.2875 93.1095C54.7966 93.0553 55.3097 93.0192 55.8208 93.0151C56.0764 93.0151 56.3319 93.0171 56.5894 93.0252C56.845 93.0412 57.1005 93.0533 57.3541 93.0814L56.5894 93.1235C56.3359 93.1356 56.0803 93.1516 55.8268 93.1697C55.3197 93.2098 54.8126 93.2499 54.3095 93.3081C53.8044 93.3623 53.3013 93.4326 52.7982 93.5048C52.295 93.5791 51.7939 93.6674 51.2888 93.7537Z" fill="#161616"/>
<path d="M53.4209 87.7935C53.4209 87.8878 53.7323 91.8433 53.3889 93.2542L54.7625 93.1277C54.7625 93.1277 55.012 89.8003 54.9801 87.8858" stroke="#161616" stroke-width="0.3" stroke-miterlimit="10" stroke-linecap="round" stroke-linejoin="round"/>
<path d="M48.4618 88.4875C47.6193 89.5151 46.5911 90.3881 45.4412 91.0483" stroke="#161616" stroke-width="0.3" stroke-miterlimit="10" stroke-linecap="round" stroke-linejoin="round"/>
<path d="M60.3687 88.1484C60.8538 88.9612 61.5665 89.6355 62.4031 90.073" stroke="#161616" stroke-width="0.3" stroke-miterlimit="10" stroke-linecap="round" stroke-linejoin="round"/>
<path d="M54.4512 93.2241C54.4512 93.2241 55.3576 97.7436 55.3576 99.8789" stroke="#161616" stroke-width="0.3" stroke-miterlimit="10" stroke-linecap="round" stroke-linejoin="round"/>
<path d="M35.0795 40.1869C35.1131 40.0679 35.14 39.9733 35.1595 39.9054L37.7896 40.2701L37.0977 54.0806L37.0918 54.1968L37.2029 54.2314C39.2854 54.8793 41.9954 56.1783 44.1909 57.3193C45.2873 57.8892 46.253 58.4184 46.9445 58.8051C47.2902 58.9984 47.5674 59.1561 47.7581 59.2654C47.8246 59.3036 47.8807 59.3359 47.9254 59.3617L45.7595 63.2427C45.6782 63.2193 45.5823 63.1921 45.4729 63.1612C44.2158 62.805 41.1892 61.9475 38.3469 60.6127C36.7372 59.8567 35.1964 58.952 34.0727 57.9059C32.9483 56.8591 32.2587 55.6878 32.3064 54.3947C32.4056 51.7011 33.1262 48.0509 33.8248 45.0663C34.1738 43.5757 34.5165 42.2541 34.772 41.3051C34.8997 40.8307 35.0056 40.4495 35.0795 40.1869Z" fill="#FF7A76" stroke="black" stroke-width="0.3"/>
<path d="M41.5099 59.6349C35.9977 59.4803 33.3923 56.0426 32.2104 53.4778C32.1864 53.7909 32.1664 54.0939 32.1565 54.3869C31.9808 59.1733 41.458 62.1575 44.844 63.1348C45.6207 61.3287 45.2154 59.7392 41.5099 59.6349Z" fill="#FF7A76"/>
<path d="M38.2575 30.3847L38.0718 33.3207C38.0579 33.5535 38.1577 33.7783 38.3394 33.9208L40.6393 35.741C41.0965 36.1023 40.9428 36.8368 40.3798 36.9813L37.5448 37.7098C37.3212 37.768 37.1395 37.9325 37.0596 38.1513L36.0494 40.9127C35.8478 41.4626 35.1071 41.5409 34.7956 41.0472L33.2304 38.5607C33.1066 38.364 32.895 38.2416 32.6634 38.2336L29.7386 38.1212C29.1556 38.0991 28.8521 37.4148 29.2235 36.9652L31.0922 34.6995C31.2399 34.5208 31.2898 34.28 31.2279 34.0552L30.4313 31.2236C30.2736 30.6596 30.8247 30.1579 31.3677 30.3746L34.0889 31.4604C34.3045 31.5467 34.5481 31.5206 34.7397 31.3901L37.1714 29.7525C37.6486 29.4254 38.2934 29.8007 38.2575 30.3847Z" fill="#1545D2"/>
<path opacity="0.4" d="M39.787 35.0686L32.7974 38.2555C32.9731 38.2977 33.1268 38.404 33.2246 38.5606L33.4203 38.8716L40.376 35.5362L39.787 35.0686Z" fill="#1545D2"/>
<path d="M39.34 38.8759C39.4917 38.5849 39.5356 38.2518 39.5775 37.9286C39.6394 37.447 39.7013 36.9653 39.7652 36.4837C39.7712 36.4355 39.7772 36.3813 39.7473 36.3412C39.7273 36.3131 39.6933 36.2971 39.6614 36.283C38.8648 35.9278 38.0562 35.5706 37.1958 35.4281C36.9302 35.3839 36.6547 35.3619 36.3992 35.4441C36.0138 35.5666 35.7403 35.8997 35.4888 36.2188C35.3271 36.4235 35.1554 36.6603 35.1853 36.9192C35.2851 37.75 36.6787 37.4932 37.1678 37.3226C36.6907 37.6477 36.3692 38.2156 36.2275 38.7715C36.1197 39.193 36.1496 39.6686 36.4012 40.0218C36.7725 40.5436 37.4353 40.5556 37.8945 40.1944C38.3857 39.8031 39.0425 39.4478 39.34 38.8759Z" fill="#FF7A76"/>
<path d="M54.9285 58.2746L54.9659 58.2865L55.0043 58.2786C59.3285 57.3873 62.8522 59.761 65.313 62.3938C66.5412 63.7079 67.4972 65.0793 68.1465 66.1226C68.471 66.644 68.7186 67.0829 68.8849 67.391C68.9681 67.545 69.0309 67.6663 69.0729 67.7488C69.0803 67.7634 69.0871 67.7768 69.0932 67.789C68.1793 68.8836 66.8177 69.532 65.6603 69.9075C65.0706 70.0989 64.5388 70.2179 64.1545 70.289C63.9625 70.3246 63.8076 70.3481 63.701 70.3627C63.6692 70.3671 63.6417 70.3707 63.6188 70.3735L61.9397 68.2457L61.6775 68.3791C62.5005 71.3121 63.0264 76.1381 63.3462 80.2422C63.5059 82.2919 63.6139 84.1576 63.682 85.5108C63.7161 86.1874 63.7402 86.7359 63.7557 87.1151C63.7635 87.3047 63.7691 87.452 63.7728 87.5518L63.775 87.6113C62.3375 88.3749 60.8404 88.3418 59.0646 88.249C58.9682 88.244 58.871 88.2388 58.773 88.2335C57.0385 88.1406 55.0555 88.0344 52.6825 88.6128C50.2377 89.2087 48.1067 88.7625 46.5845 88.1656C45.8234 87.8671 45.2155 87.5314 44.7986 87.2708C44.5902 87.1405 44.4296 87.029 44.3216 86.9506C44.2733 86.9154 44.2355 86.8869 44.2087 86.8663C43.7289 81.6801 43.9946 76.1685 44.3819 71.9446C44.5763 69.8246 44.8012 68.0303 44.9775 66.7662C45.0657 66.1342 45.1416 65.6348 45.1956 65.2936C45.2225 65.123 45.244 64.9919 45.2586 64.9036L45.2755 64.8035L45.2798 64.7783L45.2808 64.772L45.2811 64.7705L45.2812 64.7701C45.2812 64.77 45.2812 64.77 45.1334 64.7443L45.2812 64.77L45.307 64.6216L45.1585 64.5964C42.9609 64.2229 41.2825 63.429 40.1544 62.7294C39.5904 62.3795 39.1641 62.0534 38.8795 61.8155C38.7373 61.6966 38.6305 61.5997 38.5597 61.5331C38.5344 61.5092 38.5137 61.4892 38.4976 61.4734C38.5094 59.2646 39.1529 57.552 39.7954 56.3892C40.1197 55.8023 40.4437 55.3557 40.6859 55.0566C40.8069 54.9071 40.9075 54.7945 40.9773 54.7197C40.9853 54.7111 40.9929 54.703 41.0001 54.6954C41.9151 55.2951 43.6027 55.9412 45.0673 56.4406C45.8326 56.7016 46.5435 56.9245 47.0629 57.0823C47.3227 57.1611 47.5347 57.2237 47.6819 57.2666C47.7555 57.288 47.8128 57.3046 47.8519 57.3157L47.8964 57.3284L47.9078 57.3317L47.9107 57.3325L47.9115 57.3327L47.9117 57.3328L47.9524 57.1884L47.9117 57.3328L48.0188 57.363L48.0788 57.2693C48.2356 57.0242 48.3765 56.9397 48.4828 56.9185C48.5894 56.8973 48.6994 56.932 48.8111 57.0088C48.9227 57.0855 49.0206 57.1941 49.0924 57.2882C49.1277 57.3345 49.1555 57.3755 49.1743 57.4048C49.1837 57.4193 49.1907 57.4309 49.1953 57.4385L49.2003 57.4469L49.2013 57.4487L49.2014 57.4488L49.2014 57.4489L49.2015 57.449L49.2015 57.449L49.2773 57.5832L49.4095 57.5035C49.5239 57.4345 49.6933 57.386 49.9149 57.3613C50.1344 57.3368 50.3937 57.3368 50.6794 57.3559C51.2507 57.3943 51.9127 57.5084 52.5443 57.6449C53.1751 57.7811 53.7715 57.9386 54.2104 58.0622C54.4298 58.1239 54.6096 58.1771 54.7345 58.2148C54.7969 58.2337 54.8456 58.2487 54.8785 58.2589L54.916 58.2706L54.9255 58.2736L54.9278 58.2744L54.9284 58.2745L54.9285 58.2746L54.974 58.1317L54.9285 58.2746ZM69.2569 67.7809L69.168 67.7241C69.1854 67.716 69.2028 67.7104 69.2198 67.7069C69.236 67.7389 69.2484 67.7638 69.2569 67.7809Z" fill="#DFFD69" stroke="black" stroke-width="0.3"/>
<path d="M38.5672 59.7691C38.5413 59.755 38.5173 59.747 38.4934 59.737C38.4035 60.2949 38.3496 60.8929 38.3496 61.5331C38.3496 61.5331 40.6935 63.9835 45.1256 64.7421L45.6327 63.1767C42.5781 62.7814 38.5672 59.7691 38.5672 59.7691Z" fill="#C4E056"/>
<path d="M44.8342 66.8276C44.8582 66.2275 44.94 65.6335 45.0419 65.0415C45.1437 64.4494 45.2814 63.8655 45.4511 63.2875C45.6288 62.7135 45.8305 62.1456 46.094 61.6037C46.3595 61.0639 46.671 60.5441 47.0663 60.0925C46.9884 60.221 46.9106 60.3474 46.8287 60.4718C46.7449 60.5942 46.687 60.7327 46.6151 60.8632L46.5093 61.0578L46.4154 61.2605C46.3555 61.397 46.2877 61.5274 46.2338 61.6659C46.0062 62.2138 45.8145 62.7757 45.6428 63.3437C45.4691 63.9116 45.3294 64.4896 45.1916 65.0696C45.1217 65.3586 45.0618 65.6516 45.0039 65.9446C44.94 66.2376 44.8881 66.5326 44.8342 66.8276Z" fill="#103468"/>
<path d="M50.7558 59.5887C50.9335 60.0202 51.2389 60.3854 51.7221 60.6383C52.4867 61.0397 53.3811 61.0818 54.2416 61.116C54.601 61.13 54.9743 61.142 55.3057 61.0016C55.4954 60.9213 55.6611 60.7969 55.8128 60.6584C56.5515 59.9861 56.7552 59.1773 56.4976 58.2582C56.1622 57.0601 55.8847 55.8459 55.5533 54.6458C55.3117 53.7728 55.2399 53.2169 54.3175 52.9359C53.8124 52.7814 53.2214 52.667 52.7023 52.8276C51.776 53.1125 51.4286 54.0778 51.211 54.9368C50.8836 56.2252 50.1948 58.2341 50.7558 59.5887Z" fill="#FF7A76"/>
<path d="M54.2475 52.8938C53.7424 52.7392 53.1514 52.6249 52.6323 52.7854C51.706 53.0704 51.3586 54.0357 51.141 54.8946C50.9673 55.577 50.8315 56.2713 50.7097 56.9717C51.7539 57.5096 53.7224 58.1357 56.1401 57.0741C55.9285 56.2493 55.7109 55.4265 55.4853 54.6056C55.2437 53.7306 55.1698 53.1767 54.2475 52.8938Z" fill="#EB5C58"/>
<path d="M62.6387 44.3345C62.7764 44.5191 62.8803 44.7278 62.9342 44.9385C63.1558 45.8115 62.5928 47.0157 62.0717 47.6779C61.892 47.9067 61.6744 48.1255 61.3989 48.2198C60.6462 48.4787 60.2888 47.7863 60.0133 47.2324C59.7159 46.6344 59.662 45.8918 59.9734 45.2877C60.2329 44.786 60.5743 44.1037 61.0954 43.8348C61.6704 43.5357 62.2753 43.8488 62.6387 44.3345Z" fill="#FF7A76"/>
<path d="M44.984 44.3345C44.8462 44.5191 44.7424 44.7278 44.6885 44.9386C44.4669 45.8116 45.0299 47.0157 45.551 47.6779C45.7307 47.9067 45.9483 48.1255 46.2238 48.2198C46.9765 48.4787 47.3338 47.7863 47.6093 47.2324C47.9068 46.6344 47.9607 45.8918 47.6493 45.2878C47.3897 44.786 47.0483 44.1037 46.5272 43.8348C45.9523 43.5358 45.3473 43.8488 44.984 44.3345Z" fill="#FF7A76"/>
<path d="M47.0901 44.9105L47.1896 44.9196L47.1905 44.9109L47.1897 44.9021L47.0901 44.9105ZM47.0901 44.9105L47.1896 44.9197L47.1896 44.9201L47.1895 44.9215L47.1889 44.9277L47.1868 44.9526C47.185 44.9747 47.1825 45.0076 47.1795 45.0506C47.1734 45.1366 47.1655 45.2631 47.1581 45.4241C47.1433 45.7462 47.1306 46.2065 47.1391 46.7584C47.1561 47.8628 47.2579 49.3313 47.596 50.7924C47.9344 52.2547 48.5076 53.7011 49.4615 54.7691C50.412 55.8334 51.7449 56.5274 53.6201 56.4825C57.3598 56.3929 59.1534 53.3543 60.0125 50.2858C60.441 48.7554 60.633 47.2293 60.7177 46.0848C60.76 45.5128 60.7755 45.0368 60.7804 44.7039C60.7829 44.5375 60.7827 44.407 60.7819 44.3182C60.7815 44.2738 60.781 44.2398 60.7805 44.217L60.78 44.1913L60.7798 44.1849L60.7797 44.1834L60.7797 44.183L60.8797 44.18L60.7797 44.183L60.7795 44.1752L60.7805 44.1675L60.7805 44.1673L60.7806 44.1664L60.7811 44.1625L60.7829 44.1463C60.7845 44.1319 60.7867 44.1102 60.7894 44.0817C60.7946 44.0248 60.8014 43.9408 60.8071 43.8337C60.8187 43.6195 60.8264 43.3128 60.811 42.9446C60.7801 42.2076 60.6565 41.2273 60.2873 40.2487C59.9182 39.2708 59.3048 38.2971 58.2952 37.5674C57.286 36.8381 55.8729 36.3468 53.894 36.3468C52.0315 36.3468 50.6877 36.8818 49.7165 37.6779C48.7438 38.4751 48.1373 39.5403 47.7617 40.6117C47.386 41.6832 47.2428 42.7563 47.1937 43.5629C47.1692 43.9658 47.1683 44.3015 47.1734 44.536C47.176 44.6533 47.1801 44.7453 47.1836 44.8077C47.1853 44.8389 47.1868 44.8627 47.188 44.8786L47.1893 44.8965L47.1896 44.9009L47.1897 44.9019L47.1897 44.9021L47.0901 44.9105Z" fill="#FF7A76" stroke="black" stroke-width="0.2"/>
<path opacity="0.5" d="M47.9785 42.466C48.5196 41.3983 49.0606 40.3327 49.6016 39.265C49.6516 39.1687 49.7035 39.0683 49.7893 39.0021C49.8672 38.9439 49.965 38.9218 50.0588 38.9018C51.2128 38.663 52.4067 38.7773 53.5786 38.9098C54.8244 39.0503 56.0742 39.2108 57.2681 39.5961C57.7972 39.7667 58.3302 39.9935 58.7056 40.4029C59.1388 40.8765 59.3065 41.5288 59.4582 42.1529C59.5281 42.4419 59.6 42.7289 59.6698 43.0179C60.0891 42.4278 60.2229 41.6873 60.3447 40.9749C60.4105 40.5936 60.4744 40.1922 60.3407 39.8309C60.161 39.3413 59.6718 39.0463 59.2127 38.8054C56.8169 37.5491 54.1815 36.6641 51.4803 36.6139C50.6857 36.5999 49.8752 36.6601 49.1385 36.9591C48.9189 37.0494 48.7012 37.1638 48.5515 37.3484C48.3798 37.5612 48.3179 37.8381 48.262 38.105C48.0224 39.2309 47.7829 40.3567 47.5413 41.4806C47.4814 41.7616 47.4215 42.0425 47.3616 42.3255C47.3177 42.5342 47.1859 42.8332 47.2698 43.0419C47.4974 43.6179 47.8807 42.6586 47.9785 42.466Z" fill="#FF7A76"/>
<path d="M60.6602 45.1292L60.623 44.9838L60.623 44.9839C60.6223 44.984 60.6208 44.9844 60.6164 44.9835C60.6112 44.9824 60.6023 44.9793 60.5897 44.9719C60.5631 44.9562 60.5332 44.9291 60.5026 44.8948L60.5024 44.8946C60.0012 44.3354 59.7281 43.5901 59.625 42.8253L59.625 42.8252C59.5217 42.0616 59.5777 41.2802 59.6614 40.4951L59.6615 40.4946L59.6626 40.4834C59.6796 40.3194 59.7035 40.0877 59.5962 39.8899C59.5175 39.745 59.3852 39.6489 59.2856 39.5782L59.2854 39.5781C57.4612 38.2882 55.1883 37.8399 52.9959 37.6646C51.7983 37.568 50.5431 37.5474 49.3751 37.9325L49.3751 37.9325L49.3727 37.9334L49.3691 37.9346C49.2757 37.9672 49.1467 38.0122 49.0451 38.1089L49.0451 38.1089L49.0442 38.1097C48.9014 38.248 48.8581 38.447 48.8282 38.5843C48.8276 38.5872 48.8269 38.5901 48.8263 38.5929L48.8263 38.5932C48.6237 39.5315 48.3735 40.4596 48.0738 41.3674L48.0735 41.3682C47.8014 42.2089 47.4916 43.0373 47.1421 43.8476C47.0953 43.9561 47.0424 44.0705 46.9729 44.1506C46.9086 44.2247 46.8486 44.2507 46.7711 44.2325L46.771 44.2325C46.7369 44.2246 46.7163 44.2077 46.6988 44.177C46.6782 44.1407 46.6632 44.0855 46.6558 44.0096C46.6484 43.9352 46.6493 43.8531 46.6518 43.7689C46.6522 43.7541 46.6527 43.739 46.6532 43.7237C46.6555 43.6572 46.6578 43.5879 46.6551 43.5307C46.5774 41.8075 46.6187 40.0586 47.1703 38.4325C47.3729 37.8416 47.6708 37.2804 48.1812 37.0631L48.3294 36.9999L48.2558 36.8566C48.2021 36.7517 48.1132 36.6915 48.0343 36.6527C47.9798 36.6259 47.9153 36.6033 47.8638 36.5851C47.8463 36.579 47.8303 36.5733 47.8167 36.5682C47.7666 36.5485 47.7195 36.5175 47.6915 36.4858C47.6672 36.4584 47.6681 36.4449 47.6692 36.4402C47.6737 36.4273 47.6879 36.408 47.7337 36.3679C48.0305 36.1109 48.3987 35.9362 48.7851 35.8687L48.7989 35.5763C48.7386 35.5597 48.6847 35.5133 48.648 35.4408C48.6109 35.3678 48.5973 35.2789 48.6115 35.1993C48.642 35.0273 48.7681 34.8716 48.9335 34.7321C49.608 34.1691 50.5605 34.0667 51.4949 34.0507C54.1337 34.0088 56.8527 34.4883 58.9906 35.9941L59.2519 36.1781L59.2265 35.8595C59.2257 35.8486 59.2295 35.8213 59.2854 35.7994C59.3418 35.7774 59.4037 35.7839 59.4387 35.8074C59.5478 35.8805 59.5994 36.0339 59.6362 36.2373L59.6364 36.2387C59.638 36.2471 59.6396 36.2556 59.6413 36.2642C59.6583 36.3544 59.6782 36.4591 59.7112 36.5575C59.7479 36.6672 59.8046 36.7812 59.9036 36.8727L60.2409 37.1842L60.156 36.7513C60.1569 36.7508 60.1579 36.7503 60.1589 36.7498C60.1689 36.7451 60.1812 36.7423 60.1925 36.7423C60.2038 36.7424 60.2092 36.7451 60.2101 36.7456C60.2338 36.7603 60.2564 36.7863 60.2781 36.8321C60.3002 36.879 60.3162 36.935 60.3333 37.0006C60.423 37.3494 60.5108 37.6963 60.5986 38.0454L60.5989 38.0465L60.6014 38.056C60.6334 38.1793 60.6763 38.3445 60.784 38.4753L60.7839 38.4753L60.7853 38.4769C60.8294 38.529 60.8792 38.5703 60.9217 38.604C60.9324 38.6124 60.9424 38.6203 60.952 38.6278C60.9836 38.6525 61.0098 38.673 61.0354 38.6967L61.0359 38.6972C61.1729 38.823 61.2398 39.0006 61.2614 39.2163C61.2831 39.4333 61.2573 39.6731 61.2226 39.9052L61.1933 40.1013L61.39 40.0761C61.4941 40.0628 61.591 40.1152 61.6757 40.2397C61.7609 40.3651 61.8145 40.5407 61.8242 40.701L61.8242 40.7012C61.858 41.251 61.698 41.8111 61.3804 42.2588L61.2928 42.3823L61.4171 42.4687C61.5382 42.5531 61.6028 42.6904 61.6205 42.868C61.6384 43.0468 61.6062 43.2506 61.5491 43.4351L61.549 43.4354C61.3781 43.9913 61.0783 44.5054 60.6822 44.9306L60.6822 44.9306L60.6805 44.9325C60.6623 44.9527 60.6498 44.9653 60.6388 44.9741C60.6286 44.9821 60.6237 44.9837 60.6224 44.984L60.6602 45.1292ZM60.6602 45.1292C60.7141 45.1151 60.7541 45.075 60.792 45.0328C61.2033 44.5913 61.5147 44.0575 61.6924 43.4795C61.8131 43.0895 61.8397 42.5891 61.5114 42.3518L61.5027 42.3456L61.5284 42.3088C61.8487 41.8395 62.0089 41.261 61.9739 40.692C61.9552 40.3805 61.7927 40.0106 61.5212 39.9371C61.5205 39.9412 61.5199 39.9454 61.5193 39.9495L61.371 39.9273L61.352 39.7785C61.3655 39.7768 61.3789 39.7756 61.392 39.7748C61.4458 39.344 61.4476 38.8717 61.1374 38.5867M60.6602 45.1292C60.5584 45.1552 60.4606 45.073 60.3907 44.9947C59.8636 44.4067 59.5821 43.63 59.4763 42.8453C59.3705 42.0626 59.4284 41.2659 59.5122 40.4792C59.5302 40.3046 59.5482 40.116 59.4643 39.9615C59.4044 39.8511 59.3006 39.7728 59.1988 39.7006C57.408 38.4342 55.1679 37.9887 52.9838 37.8141C51.7899 37.7178 50.5601 37.6997 49.4221 38.075C49.3243 38.1091 49.2244 38.1452 49.1486 38.2175C49.0408 38.3218 49.0048 38.4784 48.9729 38.6249C48.7692 39.5681 48.5177 40.5013 48.2162 41.4144C47.9427 42.2593 47.6313 43.0922 47.2799 43.907L61.1374 38.5867M61.1374 38.5867C61.1068 38.5584 61.0741 38.5328 61.0415 38.5073C60.9911 38.4679 60.941 38.4288 60.8998 38.38L61.1374 38.5867Z" fill="#1545D2" stroke="black" stroke-width="0.3"/>
<path d="M61.822 68.3406L61.4326 67.1325C61.2989 66.7331 61.1711 66.3318 61.0274 65.9364C60.8876 65.539 60.7399 65.1457 60.5742 64.7604C60.4943 64.5657 60.4045 64.3751 60.3086 64.1884C60.2607 64.0961 60.2168 63.9998 60.1629 63.9075C60.107 63.8172 60.0551 63.7268 60.0032 63.6345C60.2927 63.9456 60.5143 64.3169 60.7119 64.6941C60.9116 65.0714 61.0673 65.4688 61.213 65.8682C61.3548 66.2695 61.4786 66.6769 61.5784 67.0904C61.6802 67.5038 61.77 67.9192 61.822 68.3406Z" fill="#103468"/>
<path d="M57.1542 55.342C57.3638 55.1754 57.5615 54.9968 57.7472 54.8062L56.3896 54.5433C56.3896 54.5433 56.1879 55.2136 57.1542 55.342Z" fill="#E89787"/>
<path d="M59.5281 55.0871C59.5081 55.0048 59.4862 54.9205 59.4363 54.8523C59.3604 54.7459 59.2306 54.6937 59.1088 54.6496C58.5319 54.4429 57.9389 54.2843 57.338 54.174C57.1503 54.1398 56.9546 54.1097 56.771 54.1579C56.5853 54.2061 56.4136 54.3506 56.3916 54.5412C56.3697 54.7178 56.4835 54.8904 56.6332 54.9887C56.7809 55.0871 56.9606 55.1272 57.1343 55.1673C57.4298 55.2336 57.7273 55.2978 58.0227 55.364C58.0886 55.3781 58.1585 55.3961 58.2064 55.4423C58.2603 55.4965 58.2743 55.5768 58.2863 55.653C58.3661 56.1748 58.446 56.6946 58.5279 57.2164C58.5378 57.2806 58.5498 57.3468 58.5897 57.395C58.6417 57.4552 58.7255 57.4732 58.8034 57.4813C59.1787 57.5194 59.9953 57.393 59.9853 56.9033C59.9793 56.6404 59.8375 56.3233 59.7757 56.0684C59.6918 55.7413 59.6099 55.4142 59.5281 55.0871Z" fill="#FF7A76"/>
<path d="M58.5878 57.3972C58.6397 57.4574 58.7236 57.4755 58.8014 57.4835C59.1768 57.5216 59.9933 57.3952 59.9834 56.9055C59.9794 56.747 59.9275 56.5683 59.8716 56.3958C59.3545 56.6807 58.7655 56.759 58.4561 56.7791C58.478 56.9256 58.502 57.0721 58.5239 57.2186C58.5339 57.2808 58.5459 57.347 58.5878 57.3972Z" fill="#E25955"/>
<path d="M57.3621 58.0907L57.3622 58.0903C57.4371 57.9127 57.6084 57.7795 57.8254 57.6647C57.9325 57.6081 58.0463 57.5582 58.1589 57.5101C58.1747 57.5034 58.1906 57.4966 58.2064 57.4899C58.3015 57.4494 58.3955 57.4094 58.4783 57.3685C58.9214 57.1498 59.3644 56.9291 59.8073 56.7085L59.8081 56.7081C59.8081 56.7081 59.8082 56.7081 59.8082 56.7081C59.9707 56.6274 60.1127 56.564 60.2509 56.5831C60.4173 56.6069 60.5503 56.7485 60.685 56.9207C61.3028 57.7195 61.8125 58.5758 62.3256 59.4377C62.3913 59.5483 62.4572 59.6589 62.5233 59.7695C63.1039 60.7405 63.706 61.7086 64.4845 62.5832L64.4846 62.5833C66.038 64.3233 67.5197 66.1274 68.9276 67.9876C69.4074 68.6226 69.8754 69.2658 70.1411 69.9983C70.5749 71.1964 70.4299 72.5229 70.2717 73.8192C70.193 74.4543 70.0902 75.0993 69.6582 75.498C69.2876 75.8389 68.7215 75.9285 68.2105 75.815C67.6988 75.7013 67.2376 75.413 66.8032 75.088C65.0333 73.7601 63.7226 71.8866 62.7607 69.8769L62.7607 69.8769C62.1467 68.5964 61.6671 67.2568 61.2345 65.902L61.2345 65.902C61.1588 65.6652 61.0964 65.394 61.0346 65.1065C61.0203 65.04 61.006 64.9726 60.9916 64.9046C60.9441 64.6804 60.8954 64.45 60.84 64.2255C60.6968 63.6443 60.5038 63.0748 60.148 62.7171C60.1227 62.6917 60.0981 62.6672 60.0741 62.6433C59.8484 62.4184 59.6819 62.2525 59.5656 61.9491L59.5655 61.9488C59.5518 61.9135 59.536 61.8433 59.5167 61.7456C59.5115 61.7193 59.5061 61.6914 59.5005 61.6625C59.4864 61.5891 59.4709 61.5092 59.4541 61.432C59.4307 61.3248 59.4031 61.2162 59.3694 61.1298C59.3525 61.0867 59.3326 61.0449 59.3081 61.0103C59.2847 60.9772 59.2492 60.9395 59.1977 60.9239L59.1265 60.9023L59.0854 60.9643C59.036 61.0388 59.0062 61.1304 58.984 61.2132C58.9742 61.25 58.9653 61.2873 58.9569 61.3223C58.9557 61.3274 58.9545 61.3325 58.9533 61.3375C58.9437 61.3776 58.9347 61.4141 58.925 61.4469C58.8658 61.6482 58.8077 61.8294 58.6807 61.9504C58.5529 62.0704 58.3625 62.1182 58.1598 62.1279L58.1598 62.1279L58.1588 62.1279C58.0236 62.1356 57.8991 62.1247 57.7968 62.0725C57.7004 62.0228 57.6279 61.9378 57.5714 61.828C57.5145 61.7176 57.4768 61.5878 57.4475 61.4573L57.4475 61.4573C57.2292 60.4848 57.2641 59.4743 57.3041 58.461C57.3103 58.3208 57.3166 58.1974 57.3621 58.0907Z" fill="#FF7A76" stroke="black" stroke-width="0.2"/>
<path d="M56.6292 54.2263C56.6472 54.2764 56.6811 54.3146 56.7211 54.3447C56.761 54.3748 56.8029 54.3988 56.8488 54.4149C56.9407 54.449 57.0385 54.4691 57.1403 54.4831H57.1343C57.2441 54.4851 57.3559 54.4932 57.4658 54.5032L57.4298 54.5193C57.4658 54.4831 57.4997 54.433 57.5157 54.3808C57.5356 54.3286 57.5316 54.2704 57.5077 54.2102C57.5536 54.2523 57.5776 54.3226 57.5736 54.3908C57.5656 54.4591 57.5416 54.5213 57.4997 54.5795L57.4897 54.5955H57.4638C57.352 54.5995 57.2421 54.5995 57.1323 54.5935H57.1283H57.1264C57.0205 54.5755 56.9107 54.5494 56.8149 54.4892C56.767 54.4611 56.7211 54.4249 56.6871 54.3808C56.6512 54.3366 56.6232 54.2824 56.6292 54.2263Z" fill="#C66B59"/>
<path d="M56.3757 54.6398C56.3537 54.5113 56.3976 54.3708 56.4935 54.2705C56.5913 54.1702 56.7271 54.126 56.8568 54.1039C57.1224 54.0618 57.3859 54.114 57.6374 54.1722C57.887 54.2464 58.1346 54.3006 58.3821 54.3789C58.6277 54.4571 58.8753 54.5374 59.1068 54.6498C58.8593 54.5816 58.6077 54.5214 58.3582 54.4632C58.1106 54.403 57.8551 54.3468 57.6095 54.2825C57.3639 54.2163 57.1124 54.1702 56.8668 54.1902C56.745 54.2003 56.6212 54.2304 56.5294 54.3106C56.4356 54.3869 56.3797 54.5093 56.3757 54.6398Z" fill="#C66B59"/>
</svg>
