<svg width="130" height="130" viewBox="0 0 130 130" fill="none" xmlns="http://www.w3.org/2000/svg">
<path d="M65.22 114.003C91.8512 114.003 113.44 92.4137 113.44 65.7825C113.44 39.1513 91.8512 17.5625 65.22 17.5625C38.5888 17.5625 17 39.1513 17 65.7825C17 92.4137 38.5888 114.003 65.22 114.003Z" fill="url(#paint0_linear_416_1457)"/>
<path d="M75.8599 66.7525C75.8599 66.7525 77.0899 71.4625 82.9799 71.4525C88.5399 71.4425 90.0999 66.7525 90.0999 66.7525" stroke="black" stroke-width="5" stroke-linecap="round" stroke-linejoin="round"/>
<path d="M40.3301 66.7525C40.3301 66.7525 41.5601 71.4625 47.4501 71.4525C53.0101 71.4425 54.5701 66.7525 54.5701 66.7525" stroke="black" stroke-width="5" stroke-linecap="round" stroke-linejoin="round"/>
<path d="M54.7002 92.8725C54.7002 92.8725 63.5402 85.4625 75.7302 92.8725" stroke="#5B0600" stroke-width="4" stroke-linecap="round" stroke-linejoin="round"/>
<path d="M32.3 15.4125C32.3 15.4125 41.38 29.3925 43.96 36.7725C46.48 43.9925 44.74 51.9125 37.93 55.3925C31.12 58.8725 22.79 56.1725 19.31 49.3625C17.22 45.2825 17.74 40.7325 19.31 36.7725C23.09 27.2225 30.97 15.4125 30.97 15.4125C31.16 15.0425 31.61 14.8925 31.98 15.0825C32.13 15.1525 32.24 15.2725 32.31 15.4125H32.3Z" fill="url(#paint1_linear_416_1457)"/>
<defs>
<linearGradient id="paint0_linear_416_1457" x1="23.45" y1="89.8925" x2="106.99" y2="41.6625" gradientUnits="userSpaceOnUse">
<stop stop-color="#EBB34D"/>
<stop offset="0.03" stop-color="#EBB64D"/>
<stop offset="0.18" stop-color="#EEC04F"/>
<stop offset="0.55" stop-color="#F0CC50"/>
<stop offset="1" stop-color="#F3D652"/>
</linearGradient>
<linearGradient id="paint1_linear_416_1457" x1="31.49" y1="56.9125" x2="31.49" y2="15.0025" gradientUnits="userSpaceOnUse">
<stop stop-color="#77AAF2"/>
<stop offset="0.35" stop-color="#8EBAF3"/>
<stop offset="0.74" stop-color="#A1C7F5"/>
<stop offset="1" stop-color="#A9CCF6"/>
</linearGradient>
</defs>
</svg>
