<svg width="130" height="130" viewBox="0 0 130 130" fill="none" xmlns="http://www.w3.org/2000/svg">
<path d="M65.22 113.44C91.8512 113.44 113.44 91.8512 113.44 65.22C113.44 38.5888 91.8512 17 65.22 17C38.5888 17 17 38.5888 17 65.22C17 91.8512 38.5888 113.44 65.22 113.44Z" fill="url(#paint0_linear_416_1437)"/>
<path d="M46.5197 56.0401C49.0436 56.0401 51.0897 52.6867 51.0897 48.5501C51.0897 44.4134 49.0436 41.0601 46.5197 41.0601C43.9958 41.0601 41.9497 44.4134 41.9497 48.5501C41.9497 52.6867 43.9958 56.0401 46.5197 56.0401Z" fill="black"/>
<path d="M82.6896 56.0401C85.2136 56.0401 87.2596 52.6867 87.2596 48.5501C87.2596 44.4134 85.2136 41.0601 82.6896 41.0601C80.1657 41.0601 78.1196 44.4134 78.1196 48.5501C78.1196 52.6867 80.1657 56.0401 82.6896 56.0401Z" fill="black"/>
<path d="M53.3296 79.1301C53.3296 79.1301 55.1096 70.2401 65.1096 70.2401C75.1096 70.2401 77.1096 79.1301 77.1096 79.1301" stroke="#5B0600" stroke-width="4" stroke-linecap="round" stroke-linejoin="round"/>
<defs>
<linearGradient id="paint0_linear_416_1437" x1="23.45" y1="89.34" x2="106.99" y2="41.11" gradientUnits="userSpaceOnUse">
<stop stop-color="#EBB34D"/>
<stop offset="0.03" stop-color="#EBB64D"/>
<stop offset="0.18" stop-color="#EEC04F"/>
<stop offset="0.55" stop-color="#F0CC50"/>
<stop offset="1" stop-color="#F3D652"/>
</linearGradient>
</defs>
</svg>
