<svg width="100" height="100" viewBox="0 0 100 100" fill="none" xmlns="http://www.w3.org/2000/svg">
<path d="M73.7507 49.3268C74.1579 49.7934 74.4786 50.3312 74.6654 50.8844C75.4348 53.1763 74.1594 56.5109 72.8891 58.3872C72.4512 59.0353 71.9092 59.6641 71.1868 59.9714C69.2136 60.8144 68.1148 59.0329 67.2637 57.6056C66.3448 56.0646 66.0524 54.0882 66.7703 52.4096C67.3689 51.0152 68.1518 49.1211 69.5001 48.2975C70.9875 47.3826 72.6769 48.0997 73.7507 49.3268Z" fill="#FF7A76"/>
<path d="M26.2598 52.8494C25.9259 53.371 25.6881 53.9502 25.5849 54.5249C25.1621 56.9053 26.9155 60.0152 28.4487 61.6835C28.9774 62.2599 29.6062 62.8018 30.3661 62.9993C32.4421 63.5419 33.266 61.6178 33.8972 60.0806C34.5787 58.4208 34.5763 56.423 33.6186 54.8686C32.8209 53.5778 31.7671 51.8199 30.312 51.2043C28.706 50.5188 27.1409 51.4773 26.2598 52.8494Z" fill="#FF7A76"/>
<path d="M31.7845 50.527L31.8844 50.5304L31.8848 50.52L31.883 50.5098L31.7845 50.527ZM31.7845 50.527C31.8844 50.5304 31.8844 50.5305 31.8844 50.5306L31.8844 50.5315L31.8843 50.5351L31.8838 50.5495L31.8824 50.6072C31.8813 50.6583 31.88 50.7342 31.8791 50.8332C31.8773 51.0313 31.8774 51.3219 31.8847 51.6912C31.8994 52.43 31.9432 53.4836 32.0596 54.7421C32.2924 57.2596 32.8154 60.5939 33.9756 63.866C35.1359 67.1386 36.931 70.3422 39.7037 72.607C42.4736 74.8695 46.227 76.2017 51.3199 75.7198C56.4119 75.238 60.0364 73.1509 62.6128 70.2935C65.1912 67.4338 66.7241 63.7978 67.6207 60.2147C68.5171 56.6322 68.776 53.1084 68.8105 50.4794C68.8277 49.1651 68.7889 48.0751 68.7458 47.3139C68.7242 46.9333 68.7016 46.6349 68.6844 46.4319C68.6758 46.3304 68.6685 46.2527 68.6634 46.2005L68.6575 46.1415L68.6559 46.1268L68.6556 46.1231L68.6555 46.1222C68.6554 46.1221 68.6554 46.122 68.7548 46.1111M31.7845 50.527C31.883 50.5098 31.883 50.5098 31.8829 50.5097L31.8828 50.5091L31.8824 50.5066L31.8807 50.4964L31.874 50.4551C31.8683 50.4186 31.86 50.3641 31.85 50.2927C31.83 50.15 31.8033 49.9401 31.7764 49.6721C31.7226 49.1361 31.6682 48.368 31.666 47.4415C31.6616 45.5878 31.8661 43.1027 32.7 40.5726C33.5338 38.0432 34.996 35.4706 37.5064 33.4368C40.0164 31.4033 43.5812 29.9026 48.6302 29.5281C53.9853 29.1309 57.9089 29.9729 60.7831 31.452C63.6567 32.9308 65.4884 35.05 66.6544 37.2197C67.8211 39.3905 68.3216 41.6123 68.5301 43.2927C68.6343 44.1327 68.6655 44.8365 68.6707 45.33C68.6732 45.5767 68.6693 45.7707 68.6648 45.9028C68.6625 45.9688 68.66 46.0194 68.6582 46.0533L68.6559 46.0914L68.6553 46.1009L68.6552 46.1032L68.6551 46.1037L68.7548 46.1111M68.7548 46.1111L68.6554 46.122L68.6544 46.1129L68.6551 46.1038L68.7548 46.1111Z" fill="#FF7A76" stroke="black" stroke-width="0.2"/>
<path opacity="0.5" d="M33.9445 47.2521C35.188 44.2871 36.4318 41.3274 37.6753 38.3624C37.7905 38.0946 37.9102 37.8157 38.128 37.6214C38.3259 37.4501 38.5846 37.3715 38.8331 37.2991C41.8898 36.4298 45.124 36.4977 48.3028 36.6183C51.6818 36.7456 55.0756 36.9259 58.3637 37.7188C59.8207 38.0698 61.2996 38.5703 62.3905 39.591C63.6499 40.7719 64.2305 42.4839 64.7626 44.1238C65.0079 44.8832 65.2582 45.6369 65.5035 46.3963C66.5142 44.7337 66.727 42.7253 66.9132 40.7945C67.0148 39.761 67.107 38.6741 66.6754 37.7341C66.0949 36.4596 64.7206 35.7677 63.4375 35.2149C56.7436 32.331 49.4789 30.4884 42.2027 30.8931C40.0625 31.0141 37.894 31.3369 35.9717 32.2841C35.3988 32.5696 34.8362 32.9191 34.47 33.4431C34.0504 34.0466 33.9389 34.8001 33.8415 35.5255C33.4205 38.5862 32.9995 41.6468 32.5728 44.7024C32.4674 45.4663 32.3621 46.2301 32.2571 46.9993C32.1804 47.5666 31.8853 48.3931 32.1523 48.9349C32.8788 50.4308 33.7196 47.7872 33.9445 47.2521Z" fill="#FF7A76"/>
<path d="M35.7081 36.7537L35.7082 36.7534C35.7637 36.364 35.832 35.8895 36.1366 35.5492L36.1375 35.5483C36.3522 35.3123 36.6441 35.1848 36.8964 35.0757L36.8987 35.0747L36.8987 35.0747C39.9144 33.8314 43.2516 33.635 46.4859 33.6546C52.4041 33.6861 58.5511 34.4317 63.6547 37.4841L63.6549 37.4842C63.9408 37.6558 64.2654 37.8601 64.4698 38.1766C64.755 38.6183 64.7388 39.1752 64.7255 39.6352L64.7254 39.6384L64.7254 39.6389C64.656 41.7592 64.6592 43.8874 65.0952 45.9418L65.0952 45.9419C65.5314 48.0008 66.4319 49.9923 67.9385 51.4339L67.9387 51.4341C68.0357 51.5274 68.1435 51.6144 68.2523 51.6678C68.3601 51.7208 68.4545 51.7342 68.5382 51.7063C68.6332 51.674 68.7085 51.594 68.8034 51.4721L68.805 51.4701C69.8097 50.2239 70.5313 48.7539 70.8893 47.1943L70.8894 47.194C71.0113 46.668 71.0627 46.0805 70.9716 45.5621C70.8806 45.0451 70.6514 44.6119 70.2242 44.3607L70.0931 44.2836L70.172 44.1536C70.9674 42.8428 71.2988 41.2539 71.0909 39.7324L71.0908 39.7322C71.0281 39.2681 70.8342 38.7643 70.5471 38.4045C70.2608 38.0456 69.902 37.8507 69.4957 37.9333L69.3014 37.9727L69.3162 37.775C69.3637 37.1441 69.388 36.4709 69.2807 35.8616C69.1737 35.2537 68.9383 34.7247 68.4787 34.3633L68.4781 34.3628C68.3956 34.2973 68.3093 34.2399 68.2175 34.1788C68.1914 34.1615 68.165 34.1439 68.138 34.1257C68.0193 34.0457 67.8948 33.9568 67.7845 33.845L67.783 33.8435C67.5066 33.5555 67.3738 33.1677 67.2593 32.8331L67.2568 32.8258L67.2564 32.8246C66.9508 31.9079 66.6457 30.9967 66.3349 30.0806C66.2761 29.909 66.2154 29.7413 66.1332 29.597C66.0517 29.4539 65.9547 29.3443 65.8293 29.2795C65.7243 29.2253 65.5712 29.2364 65.4489 29.3055C65.3267 29.3745 65.286 29.4668 65.3088 29.5497L65.4303 29.9912L65.0712 29.7071C64.832 29.518 64.6783 29.2661 64.567 29.0021C64.4658 28.762 64.396 28.5021 64.3314 28.2617C64.3255 28.2396 64.3196 28.2177 64.3137 28.1959L64.3134 28.1945C64.1761 27.6655 63.9885 27.1598 63.5765 26.9272C63.3908 26.8223 63.1327 26.8298 62.9262 26.9284C62.7199 27.0268 62.6107 27.1894 62.6383 27.3672L62.6872 27.6822L62.4133 27.5191C56.2988 23.8778 48.8281 23.138 41.71 23.7791C39.1997 24.0085 36.5733 24.4754 34.8003 26.1845C34.3699 26.6038 34.0085 27.0984 33.9512 27.6543C33.9233 27.9257 33.9906 28.2155 34.1325 28.4492C34.274 28.6824 34.4831 28.85 34.7343 28.8989L34.7422 29.1916C33.6711 29.4608 32.6743 30.025 31.8943 30.8048C31.7777 30.9223 31.6938 31.0221 31.6674 31.1345C31.6424 31.2554 31.6906 31.3736 31.807 31.4866C31.9246 31.6007 32.0966 31.692 32.2646 31.7434C32.3123 31.7572 32.3637 31.7711 32.4173 31.7855C32.5559 31.8228 32.7083 31.8638 32.8449 31.9184C33.0402 31.9965 33.234 32.1127 33.3593 32.317L33.4439 32.4549L33.3 32.5289C31.8644 33.2667 31.1521 34.9293 30.7231 36.5561C29.5497 41.0651 29.791 45.792 30.3428 50.3958C30.3428 50.3958 30.3428 50.3959 30.3428 50.396L30.1939 50.4138C30.2104 50.5485 30.2171 50.7128 30.2243 50.8905C30.2529 51.5951 30.29 52.5097 30.9838 52.6178L35.7081 36.7537ZM35.7081 36.7537C35.3483 39.3134 34.8578 41.8556 34.2295 44.3539L34.2293 44.3547M35.7081 36.7537L34.2293 44.3547M33.2314 32.3955C33.1867 32.4185 33.1426 32.4423 33.0993 32.467C33.1007 32.4693 33.1021 32.4716 33.1036 32.4739L33.2314 32.3955ZM33.2314 32.3955L33.1629 32.262C33.1544 32.2664 33.1459 32.2708 33.1374 32.2752C33.1725 32.3111 33.2041 32.3509 33.2314 32.3955ZM34.7056 29.0461C34.6162 29.0287 34.532 28.9989 34.4538 28.9588C34.5252 28.9381 34.597 28.9187 34.6691 28.9006L34.7056 29.0461ZM34.7056 29.0461C34.6169 29.0684 34.5286 29.0927 34.4409 29.1189C34.5151 29.1519 34.5939 29.1772 34.677 29.1933L34.7056 29.0461ZM62.4901 27.3902C62.4807 27.3299 62.4823 27.2721 62.493 27.2176C62.5177 27.2321 62.5423 27.2467 62.5668 27.2614L62.4901 27.3902ZM62.4901 27.3902C62.4381 27.3593 62.386 27.3285 62.3338 27.298C62.3332 27.3353 62.3357 27.3737 62.3419 27.4132L62.4901 27.3902ZM65.1642 29.5895L65.0196 29.6293C65.0012 29.5626 64.9979 29.4993 65.0062 29.4402C65.0541 29.4938 65.1065 29.5439 65.1642 29.5895ZM65.1642 29.5895L65.2573 29.4718C65.2273 29.4482 65.1988 29.423 65.1718 29.3965C65.1499 29.4557 65.1453 29.5208 65.1642 29.5895ZM69.4658 37.7863L69.4359 37.6393C69.4496 37.6365 69.4633 37.6339 69.4769 37.6316C69.4734 37.6835 69.4697 37.7351 69.4658 37.7863ZM69.4658 37.7863L69.6154 37.7975C69.6162 37.7871 69.6169 37.7766 69.6177 37.7662C69.5679 37.7692 69.5173 37.7758 69.4658 37.7863ZM64.5754 39.634C64.5891 39.1632 64.6 38.6548 64.3438 38.258C64.1608 37.9746 63.866 37.7858 63.5777 37.6128C58.5091 34.5813 52.395 33.836 46.485 33.8046C43.2543 33.785 39.9425 33.9821 36.9559 35.2134L64.5754 39.634ZM64.5754 39.634C64.506 41.756 64.5084 43.8996 64.9484 45.973L64.5754 39.634ZM34.2293 44.3547C33.6623 46.6659 32.9911 48.9523 32.2093 51.1981L34.2293 44.3547ZM70.3766 44.1023C70.3765 44.1022 70.3764 44.1021 70.3763 44.1021L70.3003 44.2314L70.3379 44.2542C71.2552 44.8285 71.2817 46.1653 71.0355 47.2279L70.3766 44.1023ZM35.8567 36.7746C35.9135 36.3761 35.9791 35.9501 36.2484 35.6493L34.375 44.3905C35.0046 41.8868 35.4961 39.3393 35.8567 36.7746Z" fill="#1545D2" stroke="black" stroke-width="0.3"/>
<path d="M44.9218 3.2617C35.2148 4.74608 26.6797 9.94139 21.0351 17.793C19.4922 19.9414 17.0507 24.7461 16.2304 27.2461C15.5273 29.4141 14.8828 32.3242 14.7265 34.1406L14.5898 35.4883L13.0078 35.625C10.8593 35.7812 9.3945 36.1914 7.42184 37.1484C6.11325 37.7734 5.42966 38.3008 4.082 39.6289C2.65622 41.0352 2.24606 41.6016 1.50387 43.1641C0.0976231 46.0547 -0.0390957 47.0898 0.0390293 54.1406C0.117154 59.9414 0.117154 60.0977 0.644498 61.6211C1.81637 65.1562 4.23825 68.0078 7.36325 69.5703C9.92184 70.8594 11.5429 71.1914 15.2343 71.1914C18.6718 71.1914 19.4922 70.957 20.2148 69.707C20.5859 69.0625 20.6054 68.5937 20.7226 51.7578C20.8398 32.5 20.7617 33.4961 22.2656 29.0039C25.4882 19.3164 33.7695 11.9922 44.0429 9.74608C46.3281 9.23827 51.2109 9.04296 53.6133 9.35546C60.3711 10.2539 66.1718 13.1445 70.9375 18.0078C74.8633 21.9922 77.4218 26.7969 78.7695 32.6562C79.1601 34.4141 79.1797 35.0781 79.2773 51.7578C79.414 70.9961 79.3164 69.8047 80.7226 70.6836C81.3281 71.0547 81.6797 71.0937 84.8047 71.0937C87.5586 71.0937 88.5156 71.0156 89.7265 70.7031C94.2383 69.5508 97.832 66.1719 99.3554 61.6211C99.8828 60.0977 99.8828 59.9414 99.9609 54.1406C100.039 47.0898 99.9023 46.0352 98.4961 43.1641C97.7344 41.6211 97.3047 41.0352 95.9179 39.6289C93.3984 37.1289 90.6836 35.8984 86.9922 35.625L85.4101 35.4883L85.2734 34.1406C84.9414 30.4883 83.75 26.6406 81.7383 22.5586C80.0195 19.1211 78.3398 16.6797 75.8008 14.0234C70.1172 8.04686 63.0273 4.39452 54.8633 3.22264C52.3047 2.87108 47.3828 2.87108 44.9218 3.2617Z" fill="#1545D2"/>
<path d="M16.0934 73.621C16.2692 74.91 17.2848 77.703 18.1637 79.3436C20.9957 84.5975 25.8395 88.4061 31.6207 89.91C33.0465 90.2811 34.1989 90.4178 36.3473 90.496L39.1989 90.6132V88.8163L39.2184 87.0389H37.2457C34.7848 87.0389 33.1832 86.785 31.1324 86.0819C25.8004 84.246 21.484 79.7343 19.941 74.3632L19.4723 72.7811H17.734H15.9762L16.0934 73.621Z" fill="#1545D2"/>
<path d="M45.9908 81.8636C43.2174 82.6449 41.3815 85.1253 41.4205 88.0746C41.4596 90.3792 42.8268 92.5081 44.9752 93.5628C45.8737 93.9925 46.0299 94.0121 51.4596 94.0121C56.8893 94.0121 57.0455 93.9925 57.944 93.5628C61.694 91.7074 62.6901 86.8441 59.9362 83.7777C59.4283 83.2113 58.5885 82.5667 57.944 82.2542L56.8307 81.7074L51.8502 81.6683C48.3151 81.6292 46.6158 81.6878 45.9908 81.8636Z" fill="#1545D2"/>
<circle cx="43.787" cy="52.071" r="2.36686" fill="#DFFD69"/>
<circle cx="49.704" cy="52.071" r="2.36686" fill="#DFFD69"/>
<circle cx="55.6213" cy="52.071" r="2.36686" fill="#DFFD69"/>
</svg>
